<?xml version="1.0" encoding="UTF-8"?>
<svg id="Layer_2" data-name="Layer 2" xmlns="http://www.w3.org/2000/svg" xmlns:xlink="http://www.w3.org/1999/xlink" viewBox="0 0 1024 1024">
  <defs>
    <style>
      .cls-1 {
        fill: url(#linear-gradient-2);
      }

      .cls-2 {
        fill: url(#linear-gradient);
      }

      .cls-3 {
        fill: #fff;
      }
    </style>
    <linearGradient id="linear-gradient" x1="337.17" y1="-27.85" x2="597.56" y2="822.11" gradientUnits="userSpaceOnUse">
      <stop offset=".06" stop-color="#fd003c"/>
      <stop offset=".72" stop-color="#cc004c"/>
      <stop offset=".72" stop-color="#1b2ad3"/>
      <stop offset=".78" stop-color="#1d40d1"/>
      <stop offset=".9" stop-color="#2478cf"/>
      <stop offset="1" stop-color="#2ba9cd"/>
    </linearGradient>
    <linearGradient id="linear-gradient-2" x1="415.92" y1="299.56" x2="528.9" y2="668.34" gradientUnits="userSpaceOnUse">
      <stop offset="0" stop-color="#fd003c"/>
      <stop offset="1" stop-color="#bb0052"/>
    </linearGradient>
  </defs>
  <path class="cls-2" d="M682.24,300.29c-2.92-38.03,11.71-80.86,12.12-82.07-1.82.3-88.85,16.18-115.3,89.78-23.45-65.56-76.13-132.2-183.43-161.98,26.88,80.69,18.84,150.09-43.11,232.7-12.71-18.6-28.83-36.13-47.08-49.98,18.04,42.66-37.21,90.65-48.27,161.52-1.38,8.86-2.1,18.09-1.86,27.7-.62,17.22-.79,41.31,1.35,69.98,1.71,22.98,5.06,51.03,8.77,67.89,11.49,52.28,51.51,112.26,112.66,147.6,46.13,26.66,103.91,38.68,171.23,28.19,126.37-19.69,208.82-111.96,222.09-221.33-1.64-43.43-8.48-101.05-29.74-165.39-14-42.36-31.06-78.01-47.26-106.64-7.84-15.38-11.43-28.67-12.14-37.99Z"/>
  <g>
    <path class="cls-1" d="M845.49,508.53c-.36-1.9-.75-3.66-1.13-5.37-.67-3.01-1.36-6.13-1.35-7.95,0-1.44.04-2.89.07-4.33.26-12.08.71-33.42-17.87-47.28-1.79-4.3-3.9-8.1-5.73-11.41-5.28-9.53-5.01-10.01-3.56-12.68,2.4-4.4,9.71-17.8,4.5-32.46-5.44-15.28-20.95-21.62-28.41-24.66-9.96-4.07-18.61-5.96-27.21-5.96-9.56,0-18.82,2.36-28.31,7.22-.76.39-1.45.56-2.25.56-2.43,0-5.73-1.59-8.85-4.27-7.44-6.38-14.98-9.61-22.41-9.61-2.15,0-4.28.27-6.33.81-.52.14-.97.2-1.39.2-2.44,0-6.57-2.45-10.66-5.09-7.84-5.06-15.59-7.52-23.7-7.52-2.76,0-5.56.3-8.37.89-1.35-.7-2.88-1.45-4.53-2.13-2.42-.99-4.97-1.55-7.58-1.68l-9.36-.46c-.35-.02-.78-.03-1.13-.03-10.7,0-19.91,7.28-22.38,17.71-.11.48-.25.97-.38,1.45-.9,3.36-2.25,8.44-1.67,14.57.03.27.05.54.08.81-8.38,4.64-12.89,13.5-15.22,20.33-.3.03-.57.08-.86.12-4.09.49-7.65,1.51-10.43,2.33-1.19.35-2.82.83-3.41.92-3.44.47-6.98.79-10.55.96-4.3-8.02-12.11-12.31-17.67-15.37-1.54-.85-3-1.65-4.24-2.42-3.65-2.27-7.84-3.47-12.13-3.47-11.63,0-21.46,8.71-22.85,20.27l-.51,4.26c-.11.93-.22,1.85-.33,2.75-2.63-.67-5.32-1.1-8.11-1.1-11.45,0-20.86,7.21-23.99,18.36-1.26,4.49-1.37,9.01-1.39,14.45-.01,3.84-.63,5.34-.79,5.53-.16.18-1.73,1.84-8.73,4.12-11.76,3.83-20.96,11.04-29.07,17.41-1.86,1.46-3.62,2.84-5.33,4.12-3.14,2.34-8.5,7.71-9.15,17.4-.36,5.37.76,12.95,4.64,19.25-2.8,5.57-5.35,11.14-7.83,16.55-.77,1.67-1.52,3.31-2.26,4.92-4.96-1.78-9.84-2.81-14.3-3.76-1.92-.41-3.73-.79-5.55-1.22-1.75-.42-3.55-.63-5.35-.63-7.04,0-13.59,3.16-17.98,8.66-1.26,1.58-2.3,3.3-3.09,5.1-6.55.55-12.6,1.85-18.1,3.03-2.47.53-4.8,1.03-7.02,1.43-6.86,1.24-12.08,4.5-15.54,6.65-.8.5-1.89,1.18-2.31,1.38l-.35.17c-8.9,4.25-17.3,8.27-25.91,12.01-.4.11-1.25.3-1.88.44-1.44.32-3.17.71-5.09,1.28-8.75-11.35-20.48-17.81-34.32-18.96-1.48-.12-2.98-.2-4.51-.2-2.33,0-4.74.15-7.2.44-.94-.48-1.91-.96-2.93-1.45-3.06-1.46-6.48-2.23-9.86-2.23-7.35,0-14.32,3.56-18.64,9.53-2.21,3.05-3.6,6.57-4.13,10.22-.81-1.07-1.68-2.13-2.62-3.16-6.87-7.55-18.99-15.61-32.42-15.61-2.11,0-4.19.21-6.2.61-3.81.78-8.56.92-13.6,1.07-1.17.03-2.33.07-3.5.11-9.24.33-17.25,6.51-19.91,15.37l-.35,1.15-2.13,7.07c-2.43,8.1.09,16.79,6.3,22.34l-.2.5c-3.61,8.78-2.85,17.31-2.3,23.53.05.57.1,1.14.15,1.7.38,4.72,1.85,8.52,2.78,10.88.36,8.22,3.13,15.01,8.24,20.23,3.1,3.16,8.23,6.81,16.04,8.12,4.43,8.32,11.37,14.17,16.68,18.63l1.04.88c8.06,6.81,15.95,8.24,21.16,8.24,9.85,0,17.2-4.7,22-9.05,5.04,4.22,11.39,6.5,18.41,6.5,1.3,0,2.62-.08,3.97-.23.23.18.47.38.7.59,4.51,4.04,10.26,6.95,16.55,8.52,3.47.87,7.11,1.34,10.8,1.34,15.69,0,28.38-8.51,32.33-21.68,1.71-5.7,3.26-7.35,10.22-7.35,1.36,0,2.86.09,4.45.27,5.77.65,11.4.98,16.73.98,10.17,0,19.74-1.16,28.82-3.5,3.58,6.37,8.59,10.53,10.76,12.33.36.3.74.61,1.12.92.23.18.49.4.76.62,7.91,18.29,23.46,29,46.26,31.87,4.59.58,9.5,1.71,14.71,2.9,4.41,1.01,8.97,2.06,13.8,2.89,21.07,3.61,46.02,7.81,71.28,11.63,9.57,1.44,19.22,2.69,28.55,3.89,9.19,1.18,18.69,2.4,27.89,3.8,1.08.16,3.56,1.14,5.55,1.92,1.34.53,2.86,1.12,4.46,1.7,2.35.84,4.81,1.26,7.27,1.26,1.73,0,3.46-.21,5.16-.63l1.23-.3,9.01-2.22c4.08-1,7.77-3.17,10.64-6.24.86-.92,1.71-1.84,2.56-2.76,3.92-4.23,7.63-8.23,11.42-11.7,5.33-4.86,11.15-9.38,17.59-14.24,1.31-.23,3.71-.5,7.17-.5,4.76,0,8.46.52,9.94.86,3.16,1.54,6.61,2.34,10.11,2.34s6.55-.71,9.57-2.1c2.94-1.36,5.78-2.71,8.58-4.04,6.12-2.92,11.9-5.67,17.5-7.85,1.5-.58,2.59-.95,3.36-1.18,4.26,4.1,9.97,6.42,15.93,6.42,8.1,0,15.69-4.33,19.81-11.31l.49-.83c3.99-6.76,4.17-15.11.75-21.98,3.61-3.55,5.77-7.66,7.06-10.12.25-.47.62-1.18.76-1.42.32-.5.62-1,.91-1.49.22,0,.44-.03.66-.04,8.26-.25,15.96-4.08,21.21-10.64,6.49-8.12,8.8-19.92,6.18-31.58-1.27-5.67-2.3-11.24-3.06-16.66,8.27-5.51,16.36-15.28,17.77-32.53.03-.33.05-.68.07-1.05,7.7-.81,15.29-3.32,22.61-7.51,3.86-2.21,6.94-5.55,8.83-9.57l.79-1.69,1.35-2.88c1.94-4.13,2.52-8.76,1.67-13.24ZM822.12,517.15c-5.76,3.29-11.54,4.94-17.35,4.94-6.32,0-12.67-1.96-19.06-5.91-.23-.14-.49-.21-.74-.21-.36,0-.72.14-.98.41-3.03,3.11-5.83,5.99-9.17,9.43-.74.76-.39,2.03.63,2.31,8.29,2.25,13.88,5.84,13.17,14.59-.75,9.21-4.46,16.18-14.34,19.12-2.2.65-4.67,5.56-4.43,8.28.85,9.49,2.43,18.98,4.52,28.28,1.84,8.16-1.08,15.91-7.16,15.91-.54,0-1.1-.06-1.68-.19-1.43-.31-2.7-.45-3.86-.45-7.91,0-9.96,6.66-13.5,12.26-1.85,2.92-3.77,8.09-5.84,8.18-8.8.39-10.69,6.14-12.29,11.85-.12.44-.02.93.27,1.29,3.15,3.95,6.02,7.54,8.88,11.12.36.45.4,1.08.11,1.57l-.49.83c-.26.45-.73.68-1.2.68-.37,0-.75-.15-1.02-.46-4.14-4.7-8.64-6.34-13.28-6.34-4.23,0-8.56,1.37-12.83,3.02-9.01,3.5-17.64,7.95-27.32,12.42-.16.07-.33.11-.5.11-.26,0-.51-.08-.74-.21-3.09-1.84-11.24-2.99-19.31-2.99-7.57,0-15.07,1.01-18.24,3.4-7.21,5.42-14.43,10.92-21.08,16.99-5.37,4.9-10.25,10.34-15.22,15.68-3.36.83-6.88,1.69-10.24,2.52-4.66-1.67-9.24-3.91-14.05-4.63-18.77-2.84-37.67-4.85-56.45-7.68-23.66-3.57-47.27-7.52-70.85-11.56-9.87-1.69-19.54-4.68-29.45-5.93-13.89-1.75-24.64-6.85-29.88-20.89-1.14-3.04-4.45-5.46-7.15-7.7-8.67-7.2-9.16-12.29-1.81-20.53,1.12-1.25,1.94-2.77,2.93-4.47.47-.81.02-1.85-.89-2.06-.76-.18-1.34-.32-1.86-.32-.14,0-.27,0-.4.03-2.1.32-4.44.5-6.19,1.55-14.27,8.58-29.25,11.98-45.16,11.98-4.69,0-9.46-.3-14.32-.84-2.34-.26-4.63-.41-6.87-.41-14.07,0-25.79,5.67-30.92,22.76-1.29,4.3-6.25,6.28-11.63,6.28-4.73,0-9.79-1.53-12.94-4.35-3.45-3.09-8.99-6.77-12.98-6.77-.48,0-.94.05-1.37.17-1.86.49-3.42.73-4.74.73-5.28,0-6.8-3.72-8.54-9.48-.68-2.23-5.48-5.22-7.75-5.22-.26,0-.49.04-.67.12-4.75,2.17-9.2,5.89-12.55,9.99-3.39,4.15-6.9,7.14-10.88,7.14-2.23,0-4.61-.94-7.21-3.13-5.23-4.42-11.45-9.34-13.56-15.33-2.23-6.31-5.14-8.81-10.71-8.81-.18,0-.37,0-.56,0-.23,0-.45,0-.67,0-6.39,0-9.02-2.79-8.89-9.58.07-3.4-2.53-6.78-2.81-10.26-.41-5.09-1.17-10.82.6-15.29,5.1-12.88.76-19.72-2.53-22.78-1.67-1.55-2.28-3.92-1.62-6.1.74-2.46,2.96-4.19,5.53-4.29,4.65-.18,12-.59,16.34-1.47.6-.12,1.23-.18,1.89-.18,8.64,0,21.49,10.15,20.72,18.33-.46,4.86.91,7.38,5.23,7.38.64,0,1.34-.05,2.11-.16.47-.07,1-.1,1.57-.1,2.32,0,5.13.54,5.5,1.53.41,1.09.09,3.09-.33,4.81-.48,1.95.28,3.99,1.94,5.11l.04.03c1.86,1.27,4.35,1.06,5.97-.49,5.02-4.8,9.97-9.66,14.36-14.98,2.32-2.8,1.48-8.65,1.2-13.04-.17-2.56-1.02-5.08-1.83-7.56-.31-.95.44-1.83,1.33-1.83.2,0,.4.04.6.14,4.06,1.93,7.38,4.04,10.2,4.04.33,0,.66-.03.98-.09,2.87-.57,5.61-.86,8.21-.86,9.69,0,17.49,4.07,23.48,13.24,3.28,5.03,7.14,7.7,11.89,7.7,2.26,0,4.73-.61,7.44-1.85,3.53-1.63,7.74-1.76,11.32-3.32,9.18-3.98,18.22-8.3,27.25-12.62,4.19-2,8.02-5.47,12.38-6.26,9.11-1.65,18.19-4.39,27.5-4.39,3.56,0,7.16.4,10.8,1.42.15.04.3.06.46.06,1.16,0,2.59-1.02,3.82-1.75.54-.32.81-.96.67-1.57-.79-3.49-1.52-6.68-2.27-9.96-.2-.9.5-1.7,1.36-1.7.11,0,.22.01.33.04,8.03,1.92,15.18,2.8,21.23,5.86,4.09,2.07,7.29,3.23,9.96,3.23,4.03,0,6.89-2.64,9.86-8.78,5-10.33,9.46-20.94,14.76-31.11,3.42-6.56,3.78-11.78-1.93-17.37-1.78-1.75-2.62-7.81-1.47-8.67,9-6.72,17.85-14.94,28.17-18.3,16.62-5.41,24.38-12.77,24.44-30.12.03-8.15.29-11.27,3.77-11.27,1.76,0,4.34.8,8.13,2.15,2.02.72,4.02,1.07,5.92,1.07,7.47,0,13.55-5.29,14.6-13.66.57-4.55,1.11-9.18,1.75-14.5.09-.74.72-1.24,1.39-1.24.24,0,.48.06.71.2,6.53,4.07,13.88,6.79,14.71,10.86,1.81,8.8,6.45,10.32,13.24,10.32.03,0,.07,0,.1,0,6.27-.01,12.58-.43,18.79-1.29,5.16-.71,10.33-3.34,15.31-3.34.41,0,.82.02,1.23.06,1.14.11,2.21.17,3.2.17,6.3,0,9.75-2.38,11.21-10.05.94-4.92,3.99-12.62,7.34-13.35,13.98-3.05,10.99-12.19,10.11-21.46-.28-2.92.84-5.97,1.56-8.98.15-.64.71-1.09,1.36-1.09.02,0,.05,0,.07,0l9.36.46c.16.04.32.07.48.1,3.8,1.55,8.31,4.84,11.49,4.84.48,0,.93-.07,1.34-.24,2.97-1.21,5.67-1.77,8.23-1.77,4.15,0,7.96,1.47,11.97,4.07,6.98,4.51,14.06,8.55,22.39,8.55,2.2,0,4.49-.28,6.89-.91.26-.07.54-.1.83-.1,2.54,0,6.07,2.46,8.35,4.41,6.95,5.96,14.96,9.47,22.91,9.47,4.1,0,8.19-.93,12.1-2.94,6.57-3.36,12.53-4.84,18.45-4.84s12.3,1.6,19.04,4.36c15.86,6.48,21.1,12.12,13.11,26.77-10.94,20.06,6.34,32.26,10.07,48.08.1.41.37.75.74.93,15.99,7.97,13.68,22.7,13.62,36.94-.02,5.82,1.76,11.64,2.87,17.47-.73,1.55-1.42,3.02-2.15,4.57Z"/>
    <path class="cls-3" d="M822.12,517.15c-5.76,3.29-11.54,4.94-17.35,4.94-6.32,0-12.67-1.96-19.06-5.91-.23-.14-.49-.21-.74-.21-.36,0-.72.14-.98.41-3.03,3.11-5.83,5.99-9.17,9.43-.74.76-.39,2.03.63,2.31,8.29,2.25,13.88,5.84,13.17,14.59-.75,9.21-4.46,16.18-14.34,19.12-2.2.65-4.67,5.56-4.43,8.28.85,9.49,2.43,18.98,4.52,28.28,1.84,8.16-1.08,15.91-7.16,15.91-.54,0-1.1-.06-1.68-.19-1.43-.31-2.7-.45-3.86-.45-7.91,0-9.96,6.66-13.5,12.26-1.85,2.92-3.77,8.09-5.84,8.18-8.8.39-10.69,6.14-12.29,11.85-.12.44-.02.93.27,1.29,3.15,3.95,6.02,7.54,8.88,11.12.36.45.4,1.08.11,1.57l-.49.83c-.26.45-.73.68-1.2.68-.37,0-.75-.15-1.02-.46-4.14-4.7-8.64-6.34-13.28-6.34-4.23,0-8.56,1.37-12.83,3.02-9.01,3.5-17.64,7.95-27.32,12.42-.16.07-.33.11-.5.11-.26,0-.51-.08-.74-.21-3.09-1.84-11.24-2.99-19.31-2.99-7.57,0-15.07,1.01-18.24,3.4-7.21,5.42-14.43,10.92-21.08,16.99-5.37,4.9-10.25,10.34-15.22,15.68-3.36.83-6.88,1.69-10.24,2.52-4.66-1.67-9.24-3.91-14.05-4.63-18.77-2.84-37.67-4.85-56.45-7.68-23.66-3.57-47.27-7.52-70.85-11.56-9.87-1.69-19.54-4.68-29.45-5.93-13.89-1.75-24.64-6.85-29.88-20.89-1.14-3.04-4.45-5.46-7.15-7.7-8.67-7.2-9.16-12.29-1.81-20.53,1.12-1.25,1.94-2.77,2.93-4.47.47-.81.02-1.85-.89-2.06-.76-.18-1.34-.32-1.86-.32-.14,0-.27,0-.4.03-2.1.32-4.44.5-6.19,1.55-14.27,8.58-29.25,11.98-45.16,11.98-4.69,0-9.46-.3-14.32-.84-2.34-.26-4.63-.41-6.87-.41-14.07,0-25.79,5.67-30.92,22.76-1.29,4.3-6.25,6.28-11.63,6.28-4.73,0-9.79-1.53-12.94-4.35-3.45-3.09-8.99-6.77-12.98-6.77-.48,0-.94.05-1.37.17-1.86.49-3.42.73-4.74.73-5.28,0-6.8-3.72-8.54-9.48-.68-2.23-5.48-5.22-7.75-5.22-.26,0-.49.04-.67.12-4.75,2.17-9.2,5.89-12.55,9.99-3.39,4.15-6.9,7.14-10.88,7.14-2.23,0-4.61-.94-7.21-3.13-5.23-4.42-11.45-9.34-13.56-15.33-2.23-6.31-5.14-8.81-10.71-8.81-.18,0-.37,0-.56,0-.23,0-.45,0-.67,0-6.39,0-9.02-2.79-8.89-9.58.07-3.4-2.53-6.78-2.81-10.26-.41-5.09-1.17-10.82.6-15.29,5.1-12.88.76-19.72-2.53-22.78-1.67-1.55-2.28-3.92-1.62-6.1.74-2.46,2.96-4.19,5.53-4.29,4.65-.18,12-.59,16.34-1.47.6-.12,1.23-.18,1.89-.18,8.64,0,21.49,10.15,20.72,18.33-.46,4.86.91,7.38,5.23,7.38.64,0,1.34-.05,2.11-.16.47-.07,1-.1,1.57-.1,2.32,0,5.13.54,5.5,1.53.41,1.09.09,3.09-.33,4.81-.48,1.95.28,3.99,1.94,5.11l.04.03c1.86,1.27,4.35,1.06,5.97-.49,5.02-4.8,9.97-9.66,14.36-14.98,2.32-2.8,1.48-8.65,1.2-13.04-.17-2.56-1.02-5.08-1.83-7.56-.31-.95.44-1.83,1.33-1.83.2,0,.4.04.6.14,4.06,1.93,7.38,4.04,10.2,4.04.33,0,.66-.03.98-.09,2.87-.57,5.61-.86,8.21-.86,9.69,0,17.49,4.07,23.48,13.24,3.28,5.03,7.14,7.7,11.89,7.7,2.26,0,4.73-.61,7.44-1.85,3.53-1.63,7.74-1.76,11.32-3.32,9.18-3.98,18.22-8.3,27.25-12.62,4.19-2,8.02-5.47,12.38-6.26,9.11-1.65,18.19-4.39,27.5-4.39,3.56,0,7.16.4,10.8,1.42.15.04.3.06.46.06,1.16,0,2.59-1.02,3.82-1.75.54-.32.81-.96.67-1.57-.79-3.49-1.52-6.68-2.27-9.96-.2-.9.5-1.7,1.36-1.7.11,0,.22.01.33.04,8.03,1.92,15.18,2.8,21.23,5.86,4.09,2.07,7.29,3.23,9.96,3.23,4.03,0,6.89-2.64,9.86-8.78,5-10.33,9.46-20.94,14.76-31.11,3.42-6.56,3.78-11.78-1.93-17.37-1.78-1.75-2.62-7.81-1.47-8.67,9-6.72,17.85-14.94,28.17-18.3,16.62-5.41,24.38-12.77,24.44-30.12.03-8.15.29-11.27,3.77-11.27,1.76,0,4.34.8,8.13,2.15,2.02.72,4.02,1.07,5.92,1.07,7.47,0,13.55-5.29,14.6-13.66.57-4.55,1.11-9.18,1.75-14.5.09-.74.72-1.24,1.39-1.24.24,0,.48.06.71.2,6.53,4.07,13.88,6.79,14.71,10.86,1.81,8.8,6.45,10.32,13.24,10.32.03,0,.07,0,.1,0,6.27-.01,12.58-.43,18.79-1.29,5.16-.71,10.33-3.34,15.31-3.34.41,0,.82.02,1.23.06,1.14.11,2.21.17,3.2.17,6.3,0,9.75-2.38,11.21-10.05.94-4.92,3.99-12.62,7.34-13.35,13.98-3.05,10.99-12.19,10.11-21.46-.28-2.92.84-5.97,1.56-8.98.15-.64.71-1.09,1.36-1.09.02,0,.05,0,.07,0l9.36.46c.16.04.32.07.48.1,3.8,1.55,8.31,4.84,11.49,4.84.48,0,.93-.07,1.34-.24,2.97-1.21,5.67-1.77,8.23-1.77,4.15,0,7.96,1.47,11.97,4.07,6.98,4.51,14.06,8.55,22.39,8.55,2.2,0,4.49-.28,6.89-.91.26-.07.54-.1.83-.1,2.54,0,6.07,2.46,8.35,4.41,6.95,5.96,14.96,9.47,22.91,9.47,4.1,0,8.19-.93,12.1-2.94,6.57-3.36,12.53-4.84,18.45-4.84s12.3,1.6,19.04,4.36c15.86,6.48,21.1,12.12,13.11,26.77-10.94,20.06,6.34,32.26,10.07,48.08.1.41.37.75.74.93,15.99,7.97,13.68,22.7,13.62,36.94-.02,5.82,1.76,11.64,2.87,17.47-.73,1.55-1.42,3.02-2.15,4.57Z"/>
  </g>
</svg>